nColumns=19
nRows=81
DataType=double
version=3
OpenSimVersion=4.1
endheader
time	ground_force_1_vx	ground_force_1_vy	ground_force_1_vz	ground_force_1_px	ground_force_1_py	ground_force_1_pz	ground_force_1_mx	ground_force_1_my	ground_force_1_mz	ground_force_2_vx	ground_force_2_vy	ground_force_2_vz	ground_force_2_px	ground_force_2_py	ground_force_2_pz	ground_force_2_mx	ground_force_2_my	ground_force_2_mz
0.13	-18.658	69.2858	-1.29992	1.51004	0	0.175928	0	-0.675357	0	0	0	0	-0.000399022	0	0.000202452	0	0	0
0.14	-36.332	205.426	-11.3349	0.906204	0	-0.230506	-0	0.678569	-0	0	0	0	-0.000399022	0	0.000202452	0	0	0
0.15	-55.4993	476.568	-25.801	0.884989	0	-0.237306	-0	1.39247	-0	0	0	0	-0.000399022	0	0.000202452	0	0	0
0.16	-86.2171	829.199	-28.0143	0.873037	0	-0.238361	-0	1.4304	-0	0	0	0	-0.000399022	0	0.000202452	0	0	0
0.17	-145.697	1104.43	-13.3017	0.862388	0	-0.237648	-0	0.725666	-0	0	0	0	-0.000399022	0	0.000202452	0	0	0
0.18	-218.327	1237.18	-8.00248	0.848325	0	-0.23585	0	-0.522978	0	0	0	0	-0.000399022	0	0.000202452	0	0	0
0.19	-261.216	1322.69	-36.2816	0.826034	0	-0.233198	0	-1.89315	0	0	0	0	-0.000399022	0	0.000202452	0	0	0
0.2	-246.793	1431.47	-66.8188	0.793398	0	-0.229991	0	-3.03988	0	0	0	0	-0.000399022	0	0.000202452	0	0	0
0.21	-195.852	1543.35	-68.9648	0.753217	0	-0.226738	0	-3.75615	0	0	0	0	-0.000399022	0	0.000202452	0	0	0
0.22	-131.418	1615.39	-71.161	0.710258	0	-0.223961	0	-3.84955	0	0	0	0	-0.000399022	0	0.000202452	0	0	0
0.23	-57.4129	1635.13	-91.5349	0.66718	0	-0.221913	0	-3.30786	0	0	0	0	-0.000399022	0	0.000202452	0	0	0
0.24	21.2454	1606.7	-99.5363	0.624231	0	-0.220626	0	-2.64143	0	0	0	0	-0.000399022	0	0.000202452	0	0	0
0.25	98.9001	1529.82	-81.4109	0.58091	0	-0.220133	0	-2.72466	0	0	0	0	-0.000399022	0	0.000202452	0	0	0
0.26	170.105	1399.1	-57.7181	0.53706	0	-0.22048	0	-4.02557	0	0	0	0	-0.000399022	0	0.000202452	0	0	0
0.27	224.759	1214.78	-35.3816	0.493045	0	-0.221548	0	-5.99017	0	0	0	0	-0.000399022	0	0.000202452	0	0	0
0.28	251.928	990.512	-12.2037	0.44923	0	-0.222939	0	-7.31084	0	0	0	0	-0.000399022	0	0.000202452	0	0	0
0.29	245.256	746.973	4.24492	0.404901	0	-0.223992	0	-7.00587	0	0	0	0	-0.000399022	0	0.000202452	0	0	0
0.3	210.259	506.923	10.7685	0.356888	0	-0.223644	0	-5.43993	0	0	0	0	-0.000399022	0	0.000202452	0	0	0
0.31	161.138	299.253	10.5176	0.298088	0	-0.219502	0	-4.1909	0	0	0	0	-0.000399022	0	0.000202452	0	0	0
0.32	104.596	149.317	5.17434	0.215754	0	-0.202629	0	-4.51163	0	0	0	0	-0.000399022	0	0.000202452	0	0	0
0.33	48.7169	65.4788	0.746149	0.12349	0	-0.10122	0	-5.84812	0	0	0	0	-0.000399022	0	0.000202452	0	0	0
0.34	0	0	0	-0.000399022	0	0.000202452	0	0	0	0	0	0	-0.000399022	0	0.000202452	0	0	0
0.35	0	0	0	-0.000399022	0	0.000202452	0	0	0	0	0	0	-0.000399022	0	0.000202452	0	0	0
0.36	0	0	0	-0.000399022	0	0.000202452	0	0	0	0	0	0	-0.000399022	0	0.000202452	0	0	0
0.37	0	0	0	-0.000399022	0	0.000202452	0	0	0	0	0	0	-0.000399022	0	0.000202452	0	0	0
0.38	0	0	0	-0.000399022	0	0.000202452	0	0	0	0	0	0	-0.000399022	0	0.000202452	0	0	0
0.39	0	0	0	-0.000399022	0	0.000202452	0	0	0	0	0	0	-0.000399022	0	0.000202452	0	0	0
0.4	0	0	0	-0.000399022	0	0.000202452	0	0	0	0	0	0	-0.000399022	0	0.000202452	0	0	0
0.41	0	0	0	-0.000399022	0	0.000202452	0	0	0	-16.7159	54.6964	-7.20765	6.04289	0	1.72618	-0	0.815694	-0
0.42	0	0	0	-0.000399022	0	0.000202452	0	0	0	-28.956	162.655	-15.7758	0.93217	0	-0.320281	0	-1.25402	0
0.43	0	0	0	-0.000399022	0	0.000202452	0	0	0	-32.086	381.616	-15.4866	0.907925	0	-0.324094	0	-2.09169	0
0.44	0	0	0	-0.000399022	0	0.000202452	0	0	0	-41.551	677.264	0.455495	0.896116	0	-0.325775	0	-1.88135	0
0.45	0	0	0	-0.000399022	0	0.000202452	0	0	0	-88.5566	927.396	24.0342	0.887118	0	-0.328027	0	-1.43546	0
0.46	0	0	0	-0.000399022	0	0.000202452	0	0	0	-162.21	1065.05	33.2552	0.87525	0	-0.331387	0	-1.19053	0
0.47	0	0	0	-0.000399022	0	0.000202452	0	0	0	-219.969	1170.83	23.2538	0.854461	0	-0.335466	0	-1.14807	0
0.48	0	0	0	-0.000399022	0	0.000202452	0	0	0	-227.598	1317.01	32.9502	0.822258	0	-0.339163	0	-1.13685	0
0.49	0	0	0	-0.000399022	0	0.000202452	0	0	0	-189.922	1481.51	70.1898	0.782636	0	-0.341754	0	-0.987644	0
0.5	0	0	0	-0.000399022	0	0.000202452	0	0	0	-133.538	1609	92.2333	0.741803	0	-0.343341	0	-0.688727	0
0.51	0	0	0	-0.000399022	0	0.000202452	0	0	0	-70.5216	1672.04	84.3559	0.702829	0	-0.344141	0	-0.534828	0
0.52	0	0	0	-0.000399022	0	0.000202452	0	0	0	-7.23459	1671.17	72.6718	0.66521	0	-0.344077	0	-0.932738	0
0.53	0	0	0	-0.000399022	0	0.000202452	0	0	0	53.0951	1609.91	66.8786	0.626753	0	-0.342993	0	-1.79129	0
0.54	0	0	0	-0.000399022	0	0.000202452	0	0	0	114.285	1484.59	50.6493	0.585265	0	-0.34092	0	-2.24666	0
0.55	0	0	0	-0.000399022	0	0.000202452	0	0	0	178.337	1297.33	20.2227	0.539979	0	-0.33808	0	-1.38161	0
0.56	0	0	0	-0.000399022	0	0.000202452	0	0	0	229.867	1071.82	-10.889	0.492536	0	-0.334759	-0	0.730472	-0
0.57	0	0	0	-0.000399022	0	0.000202452	0	0	0	243.817	835.402	-27.5656	0.446149	0	-0.331255	-0	2.96469	-0
0.58	0	0	0	-0.000399022	0	0.000202452	0	0	0	221.472	603.834	-27.791	0.402885	0	-0.327889	-0	4.14476	-0
0.59	0	0	0	-0.000399022	0	0.000202452	0	0	0	181.007	394.364	-22.7472	0.360424	0	-0.324966	-0	3.81946	-0
0.6	0	0	0	-0.000399022	0	0.000202452	0	0	0	131.165	222.046	-18.8063	0.307844	0	-0.322313	-0	2.13413	-0
0.61	0	0	0	-0.000399022	0	0.000202452	0	0	0	76.5418	101.21	-14.0122	0.216959	0	-0.314434	0	-0.41104	0
0.62	0	0	0	-0.000399022	0	0.000202452	0	0	0	0	0	0	-0.000399022	0	0.000202452	0	0	0
0.63	0	0	0	-0.000399022	0	0.000202452	0	0	0	0	0	0	-0.000399022	0	0.000202452	0	0	0
0.64	0	0	0	-0.000399022	0	0.000202452	0	0	0	0	0	0	-0.000399022	0	0.000202452	0	0	0
0.65	0	0	0	-0.000399022	0	0.000202452	0	0	0	0	0	0	-0.000399022	0	0.000202452	0	0	0
0.66	0	0	0	-0.000399022	0	0.000202452	0	0	0	0	0	0	-0.000399022	0	0.000202452	0	0	0
0.67	0	0	0	-0.000399022	0	0.000202452	0	0	0	0	0	0	-0.000399022	0	0.000202452	0	0	0
0.68	0	0	0	-0.000399022	0	0.000202452	0	0	0	0	0	0	-0.000399022	0	0.000202452	0	0	0
0.69	0	0	0	-0.000399022	0	0.000202452	0	0	0	0	0	0	-0.000399022	0	0.000202452	0	0	0
0.7	-43.2148	119.091	-2.29937	0.955806	0	-0.23173	0	-0.205424	0	0	0	0	-0.000399022	0	0.000202452	0	0	0
0.71	-58.907	303.016	-2.41945	0.913142	0	-0.250923	0	-0.261789	0	0	0	0	-0.000399022	0	0.000202452	0	0	0
0.72	-66.1583	602.883	2.54732	0.897789	0	-0.253974	-0	0.619287	-0	0	0	0	-0.000399022	0	0.000202452	0	0	0
0.73	-88.2385	911.443	14.5904	0.887602	0	-0.254328	-0	1.805	-0	0	0	0	-0.000399022	0	0.000202452	0	0	0
0.74	-145.87	1115.47	20.1123	0.876544	0	-0.253625	-0	2.43844	-0	0	0	0	-0.000399022	0	0.000202452	0	0	0
0.75	-207.651	1246.79	-4.03318	0.859169	0	-0.252261	-0	2.2101	-0	0	0	0	-0.000399022	0	0.000202452	0	0	0
0.76	-220.472	1370.69	-42.5047	0.831393	0	-0.250359	-0	1.36378	-0	0	0	0	-0.000399022	0	0.000202452	0	0	0
0.77	-180.547	1492.68	-58.8402	0.793735	0	-0.248104	-0	0.266265	-0	0	0	0	-0.000399022	0	0.000202452	0	0	0
0.78	-118.128	1586.24	-62.2391	0.750846	0	-0.245896	0	-0.862001	0	0	0	0	-0.000399022	0	0.000202452	0	0	0
0.79	-47.3393	1630.31	-78.0239	0.707	0	-0.244153	0	-1.93975	0	0	0	0	-0.000399022	0	0.000202452	0	0	0
0.8	27.7239	1617.98	-92.4841	0.663535	0	-0.243107	0	-2.98787	0	0	0	0	-0.000399022	0	0.000202452	0	0	0
0.81	102.498	1550.6	-85.375	0.619936	0	-0.242841	0	-4.09707	0	0	0	0	-0.000399022	0	0.000202452	0	0	0
0.82	170.314	1429.31	-65.4411	0.57572	0	-0.243371	0	-5.2621	0	0	0	0	-0.000399022	0	0.000202452	0	0	0
0.83	221.782	1257.08	-44.8803	0.531267	0	-0.244575	0	-6.18335	0	0	0	0	-0.000399022	0	0.000202452	0	0	0
0.84	246.795	1043.87	-25.1468	0.487406	0	-0.246124	0	-6.32259	0	0	0	0	-0.000399022	0	0.000202452	0	0	0
0.85	240.124	803.522	-7.21335	0.444296	0	-0.24751	0	-5.34126	0	0	0	0	-0.000399022	0	0.000202452	0	0	0
0.86	207.665	558.421	5.51546	0.400481	0	-0.248019	0	-3.67828	0	0	0	0	-0.000399022	0	0.000202452	0	0	0
0.87	161.005	340.782	8.81214	0.351898	0	-0.246222	0	-2.60304	0	0	0	0	-0.000399022	0	0.000202452	0	0	0
0.88	106.657	177.395	2.22187	0.288239	0	-0.236965	0	-3.15001	0	0	0	0	-0.000399022	0	0.000202452	0	0	0
0.89	53.7552	78.0031	-2.87254	0.180841	0	-0.182693	0	-4.68542	0	0	0	0	-0.000399022	0	0.000202452	0	0	0
0.9	0	0	0	-0.000399022	0	0.000202452	0	0	0	0	0	0	-0.000399022	0	0.000202452	0	0	0
0.91	0	0	0	-0.000399022	0	0.000202452	0	0	0	0	0	0	-0.000399022	0	0.000202452	0	0	0
0.92	0	0	0	-0.000399022	0	0.000202452	0	0	0	0	0	0	-0.000399022	0	0.000202452	0	0	0
0.93	0	0	0	-0.000399022	0	0.000202452	0	0	0	0	0	0	-0.000399022	0	0.000202452	0	0	0
